<svg width="32" height="37" viewBox="0 0 32 37" fill="none" xmlns="http://www.w3.org/2000/svg">
<path d="M15.9248 8.43216C15.9931 6.57216 16.5165 4.93883 17.4798 3.57383C18.449 2.20133 20.0515 1.22633 22.244 0.673828L22.2898 0.876328V1.22966C22.2898 2.03049 22.0956 2.94966 21.7123 3.95966C21.3098 4.93799 20.6815 5.85966 19.8473 6.69049C19.0673 7.42299 18.3448 7.90716 17.7065 8.12633C17.4965 8.18966 17.2073 8.25133 16.8581 8.30716C16.5481 8.35549 16.2373 8.39716 15.9248 8.43216Z" fill="white"/>
<path d="M16.2902 11.1917C13.8127 11.1917 12.0935 9 9.64938 9C7.20604 9 2.17188 11.2467 2.17188 19C2.17188 26.755 6.64271 31.75 7.14271 32.3333C7.64271 32.9175 8.79854 34.4167 10.5902 34.4167C12.3819 34.4167 14.3427 32.9925 16.2902 32.9925C18.2377 32.9925 20.6894 34.4175 22.2902 34.4175C23.8902 34.4175 24.5485 33.765 25.6369 32.6392C26.726 31.5142 28.8035 28.0808 29.5285 26.0192C28.3344 25.3075 25.1669 23.3775 25.1669 19.0008C25.1669 16.0842 26.2335 13.6592 28.3652 11.73C26.966 9.91083 25.3444 9.00083 23.4985 9.00083C20.7294 9.00083 18.7677 11.1917 16.2902 11.1917Z" stroke="white" stroke-width="3.2" stroke-linejoin="round"/>
</svg>
